<?xml version="1.0" encoding="UTF-8"?>
<svg id="Layer_1" data-name="Layer 1" xmlns="http://www.w3.org/2000/svg" viewBox="0 0 129.88 61.67">
  <defs>
    <style>
      .cls-1 {
        fill: none;
        stroke: #fff;
        stroke-linejoin: bevel;
        stroke-width: 2px;
      }

      .cls-2 {
        fill: #fff;
        stroke-width: 0px;
      }
    </style>
  </defs>
  <g>
    <path class="cls-1" d="m114.88,6.92c.18-.02.37-.02.56-.01l8.16.41-.41,8.16c-.1,2.05-1.85,3.62-3.89,3.52-1.02-.05-1.93-.51-2.57-1.22s-1.01-1.65-.95-2.68l.04-.74-.74-.04c-1.02-.05-1.93-.51-2.57-1.22s-1.01-1.65-.95-2.68c.04-.88.39-1.68.94-2.29"/>
    <line class="cls-1" x1="117.74" y1="11.74" x2="119.55" y2="7.33"/>
  </g>
  <g>
    <path class="cls-2" d="m8.07,59.48c-.09-.09-.18-.22-.13-.31l.13-.22c.09-.13.18-.27.18-.4,0-.36.09-.76.14-1.12.04-.18.04-.36.04-.54.04-.36.04-.76.13-1.12.09-.45.04-.89.04-1.3,0-.09-.04-.18,0-.27.05-.36,0-.76.09-1.12.05-.54.09-1.03.09-1.57,0-.18,0-.4.04-.58v-.18c-.04-.67.09-1.34.09-2.06,0-.76.05-1.52,0-2.32,0-.36.05-.67-.04-1.03.04-.18.04-.4.04-.58-.04-.49,0-1.03,0-1.57.05-.4-.04-.76,0-1.12,0-.4.05-.76.05-1.16v-4.07c.04-.45.04-.89,0-1.34-.05-.4-.05-.85,0-1.25.04-.45,0-.89-.05-1.3-.04-.13-.04-.22,0-.36v-.49c.05-.4,0-.85-.04-1.3-.09-.31-.05-.72-.13-1.07v-.22c.04-.4,0-.8-.05-1.21-.04-.4-.09-.76-.09-1.12.05-.18,0-.36-.04-.54l-.13-.8c-.09-.22-.09-.58-.04-.76-.09-.36-.14-.67-.18-.98l-.22-.27c-.09-.13,0-.36.18-.4.22-.05.45-.09.67-.05.54.05,1.07.05,1.57.05.58-.05,1.21-.05,1.79-.09.09,0,.22.09.27.18.13.13.18.31.13.49-.04.49-.13,1.03-.13,1.65,0,.13-.04.27-.09.36,0,.18-.04.31-.09.45-.09.4.04.8-.09,1.21-.09.36-.09.76-.13,1.12,0,.4-.05.8-.09,1.21-.05.18-.05.36,0,.58.04.09.04.18,0,.22-.09.31-.09.63-.09.98v.8c-.04.94-.09,1.88-.09,2.86-.04.4,0,1.83,0,2.64,0,.49-.04.94,0,1.39.05.18.09,1.3.05,1.34.04.27,0,1.61,0,2.28,0,.94-.05,1.7,0,2.64.04.27,0,.54,0,.8-.05.63-.09,1.3-.05,1.97.05.36.09.67.05,1.03,0,.09,0,.18.04.27.04.58.04,1.16.04,1.79,0,.22.05.45.05.67.09.58.13,1.16.13,1.74,0,.18,0,.4.04.58,0,.18,0,.36.05.54.04.09.09.22.09.31-.05.49,0,.94.09,1.34.09.27.09.54.13.76,0,.22.05.4.09.63.05.18.05.4.05.58l.13.31c.04.18-.13.36-.27.4-.18.04-.31.04-.45,0-.31-.09-.63,0-.94,0-.45,0-.94.04-1.39,0-.18,0-.36-.05-.49.04-.13.04-.22.04-.36,0-.18-.09-.31-.04-.49,0-.14.04-.22,0-.31-.04Z"/>
    <path class="cls-2" d="m21.57,59.48c-.18,0-.36-.05-.49,0-.27,0-.63.04-.85,0-.14,0-.22,0-.4-.05-.09,0-.18-.13-.18-.18l.14-.76c0-.18.04-.36.09-.58v-2.64c-.04-.85-.18-1.7-.27-2.55-.04-.31-.04-.67-.09-.98-.09-.45-.13-.89-.18-1.39-.05-.13-.05-.27-.05-.45-.09-.45-.13-.89-.18-1.34-.09-.45-.09-.94-.18-1.39-.13-.58-.13-1.21-.27-1.79-.05-.36-.13-.72-.13-1.12,0-.27,0-.54-.09-.8-.04-.49-.27-.89-.27-1.39,0-.22-.05-.45-.09-.67,0-.45-.09-.85-.13-1.3,0-.13-.05-.27-.09-.4-.18-.89-.31-1.74-.45-2.64-.04-.27-.04-.58-.13-.85v-.27c-.05-.49-.13-.94-.22-1.48-.05-.18-.05-.36-.05-.54,0-.09,0-.18-.04-.22-.18-.54-.18-1.07-.27-1.61l-.27-1.52c-.13-.49-.22-.98-.27-1.48-.04-.22-.09-.49-.22-.72-.04-.27-.09-.58-.18-.85-.09-.31-.27-.58-.27-.89-.18-.22-.13-.54-.31-.8l-.04-.31c-.13-.4-.31-.8-.54-1.25-.09-.13-.13-.4-.22-.54-.04-.04-.04-.09-.04-.18-.04-.13.09-.27.22-.27.09-.05.13-.05.18,0,.22.09.36.18.54.04.18.04.31,0,.49,0,.31.04.67,0,.98.04h.27c.09,0,.18,0,.31.05.67-.09,1.12-.05,1.57,0,.04.09.18.13.18.18,0,.22.05.45-.09.67l-.09.36c.04.45.09.85.04,1.3,0,.09.05.18.05.27.09.36.13.72.09,1.12,0,.58.14,1.16.31,1.65.09.63.13,1.21.27,1.83l.14,1.48c.04.49.18.94.22,1.43,0,.54.13,1.03.18,1.56.05.22.05.49.13.76.09.36.05.8.14,1.16.04.09.04.18,0,.27,0,.4.09.8.18,1.21.04.27.09.49.09.76.04.4.18.8.18,1.21.14.36.09.72.09,1.07l.27,1.21c.09.31.13.67.13,1.03.09.54.18,1.07.18,1.61.05.45.05.85.13,1.3,0,.09.05.14.05.22.04.36.04.63.09.94.04.22.13.49.09.76.05.49.14.98.27,1.43.04.18.09.36.09.49l.27,2.24c.04.13.09.27.13.4-.04.09.22,1.3.22,1.34.18-.22.27-1.39.36-2.01.05-.18.05-.4.09-.58.09-.4.13-.8.09-1.21.04-.4.09-.8.18-1.21.05-.27.13-.63.13-.94s.09-.58.14-.85c.09-.36.18-.67.22-1.03.09-.67.18-1.39.22-2.1.05-.4.14-.8.22-1.21.09-.49.22-.98.27-1.52,0-.36,0-.72.09-1.12.13-.58.18-1.16.22-1.7.04-.22.09-.45.18-.67.04-.13.04-.31.09-.45.09-.72.13-1.48.22-2.19.09-.49.22-.94.22-1.48.09-.45.09-.94.18-1.39.14-.45.09-.94.22-1.43.09-.45.13-.89.18-1.34,0-.27,0-.49.04-.72.05-.09.09-.22.09-.31,0-.63.04-1.3.09-1.92.04-.8.09-1.65,0-2.5,0-.36-.13-.72-.13-1.12,0-.09.13-.22.18-.31,0,0,.09-.04.13-.04h.09c1.03.04,1.48.09,2.24.04.22-.04.45-.04.67.05h.45c.27-.09.49-.05.72,0h.18c.18.04.36.31.22.54-.04.09-.13.18-.13.31-.04.05-.13.27-.27.49-.05.09-.13.18-.13.22.04.31-.09.58-.18.8-.09.58-.31,1.16-.36,1.7,0,.27-.05.49-.18.67-.13.49-.31.89-.36,1.39-.22.63-.27,1.25-.4,1.83-.18.54-.22,1.07-.27,1.61l-.13.67c-.04.36-.13.67-.13,1.03,0,.05,0,.13-.04.18-.05.27-.14.54-.18.85-.09.22-.04.49-.09.76,0,.09-.04.22-.09.31.05.31-.04.58-.04.85-.04.45-.13.8-.22,1.25-.13.63-.18,1.3-.36,1.92,0,.31-.04.63-.09.94-.04.27-.09.58-.18.85-.05.09-.05.22-.05.36-.04.09-.04.22-.04.31-.13.67-.22,1.34-.36,2.06,0,.18-.13.36-.13.58,0,.36-.05.72-.05,1.07-.04.27-.13.54-.18.76-.05.27-.05.54-.14.76,0,.4-.04.76-.09,1.12-.09.63-.22,1.21-.27,1.79-.09.58-.13,1.21-.09,1.83,0,.13-.09.54-.14.76-.13.63,0,.76-.04,1.3-.04.18,0,.36,0,.54v.67c.04.22,0,.36.04.58.05.85.09,1.57.14,1.83.04.13.13.22.09.31,0,.09,0,.13-.09.13-.09.04-.18.04-.22.04-.27,0-.54.05-.98.05h-.58c-.22-.05-.4-.05-.63.04-.49,0-1.65-.09-2.19-.04Z"/>
    <path class="cls-2" d="m37.4,59.08c0-.22.13-.8.22-.98.13-.63.27-1.25.36-1.92.09-.54.09-1.12.18-1.65.04-.22,0-.45.09-.67.05-.09.05-.22,0-.36-.04-.31-.04-.58-.04-.89v-1.47c.04-.14.04-.94.04-1.07-.04-.09-.04-.22-.04-.36-.22-.09-.27-.18-.4-.27-.09-.05-.22-.09-.31-.09-.4-.04-.72-.22-1.07-.4-.22-.13-.49-.27-.76-.4-.13-.09-.27-.18-.4-.31l-.89-.94c-.13-.31-.18-.67-.36-.94-.22-.45-.31-.89-.49-1.34v-.22c-.04-.13-.04-.27-.04-.36-.09-.27-.09-.49-.09-.76-.05-.36-.05-.72-.09-1.03-.09-.4-.09-.8-.09-1.21.05-.22.05-.4.05-.63.04-.54,0-1.07.04-1.65,0-.13,0-.31-.04-.49,0-.85-.05-1.7,0-2.5,0-.67.04-1.34,0-2.01,0-.18-.05-.31-.05-.49.05-.49-.04-.98,0-1.48,0-.54-.04-1.03-.09-1.57,0-.36-.04-.67,0-1.03,0-.4-.09-.76-.09-1.12.09-.76.04-1.52-.09-2.24,0-.49-.09-.94-.18-1.39-.04-.13-.04-.27-.09-.4l-.09-.63v-.18c0-.09.13-.18.22-.18h3.67c.13,0,.22.09.31.18s.14.27.09.4c-.13.45-.13.89-.22,1.34l-.04.45c-.04.27-.09.58-.13.85l-.13,1.3c0,.09.04.22.04.31-.13.4-.18.76-.18,1.12v.63c0,.27,0,.54-.04.76-.04.27.04.54,0,.8,0,.09-.04.18-.04.22,0,.18-.05.31-.05.45.05.36,0,.67,0,1.03,0,.13,0,.31.05.45.09.31.09.63.04.94-.04.27-.04.58-.04.85.04.13.04.22.04.36v2.15c.04.31,0,.58,0,.89.09.45.09.89.09,1.34,0,.4.04.76.04,1.16v.31c-.04.54-.09,1.12.05,1.65.04.13.04.27.09.4v.4c.09.18.18.27.22.4.22.45.54.76.89,1.07.22.18.49.31.76.45.18.13.4.18.63.18l1.21.14c.13,0,.22-.05.36-.05.45-.04.85-.13,1.25-.36.04-.04.13-.09.18-.09.54-.45.85-.94,1.16-1.48,0-.04.04-.09.04-.13.04-.31.18-.54.27-.85.13-.63.31-1.3.31-1.97,0-.14,0-.31.09-.49.04-.18,0-.4,0-.58,0-.4-.05-.76-.05-1.16.05-.31.09-.67.09-1.03-.04-.36,0-.67,0-1.03,0-.27.05-.58.05-.85-.05-.36-.05-.72-.09-1.07.04-.22.04-.49.04-.76,0-.36,0-.67.05-1.03,0-.4-.05-.8,0-1.21,0-.22-.05-.4-.09-.63v-.49c.04-.72.09-1.39-.05-2.1-.04-.13-.04-.31-.04-.49-.04-.18-.04-.36-.04-.54,0-.4-.05-.85-.05-1.3,0-.27-.04-.58-.04-.85-.09-.4-.09-.85-.09-1.3,0-.18-.18-.49-.27-.67-.09-.13-.13-.49.13-.49h.18c.31,0,.63.04.89-.05h.13c.4.05.67.05,1.07.05h1.56c.09.04.18.09.18.18.04.36-.04.8-.18,1.16-.04.09-.09.22-.04.31,0,.36-.04.72-.09,1.03-.09.4-.13.8-.09,1.21,0,.36-.09.72-.05,1.03v.72c0,.27-.09.49-.04.76.04.31-.05.58,0,.85.04.27.04.54.04.8-.04.45,0,.89-.04,1.39-.05.09,0,.22,0,.36v.58c-.05.27-.09.54-.05.76,0,.09,0,.18-.04.27v.36c.04.45.09.89,0,1.39v1.61c-.04.58-.09,1.16-.04,1.74,0,.22-.09.4-.14.58.05.4.05.8.05,1.21-.05.4-.09.76-.09,1.12,0,.58-.09,1.16-.22,1.74-.09.54-.27,1.12-.54,1.61-.04.13-.13.27-.18.4-.18.31-.4.58-.67.85l-.49.49c-.18.18-.4.36-.67.54-.31.22-.67.4-1.03.58l-.18.04c-.22.09-.49.18-.76.22l-.31.13c-.09,0-.18.13,0,.27,0,.05-.05.09-.05.14.05.76,0,1.48,0,2.19,0,.13-.04.27,0,.45.05.72,0,1.52.05,2.28,0,.31,0,.63.09.98,0,.09.04.22.04.36-.04.31.04.67.09.94.09.49.27,1.03.31,1.56,0,.05.13.36.13.4.04.13,0,.45-.27.45-.31,0-.67.04-.98,0-.45.04-.89,0-1.43,0h-.36c-.31.04-1.12.04-1.39.04-.31,0-.4-.36-.36-.45Z"/>
    <path class="cls-2" d="m61.49,59.66c-.22,0-.45-.09-.67-.13-.8-.31-1.43-.76-2.01-1.39-.18-.22-.36-.49-.49-.76-.09-.22-.22-.45-.31-.63-.05-.13-.09-.27-.18-.4-.13-.13-.22-.36-.27-.54-.09-.8-.27-1.61-.31-2.42v-.18c-.09-.45-.09-.89-.04-1.39v-.31c-.09-.4-.05-.8-.05-1.21,0-.98,0-1.97-.04-2.95-.05-.45-.05-.89-.05-1.3v-.89c-.04-.14-.04-.31,0-.49,0-.49,0-.94-.04-1.39v-.45c0-.49.04-1.03-.04-1.56.04-.27,0-.54.04-.85.04-.94.04-1.83.04-2.77-.09-.76,0-1.48-.09-2.24,0-.31,0-.63.04-.94.04-.36.04-.72.04-1.07s0-.72.05-1.12c.04-.13.04-.27.04-.4-.04-.8-.04-1.65,0-2.46,0-.49.05-1.03-.04-1.52v-.58c.18-.4.31-.8.45-1.16.04-.18.13-.36.18-.49.31-.63.85-1.03,1.39-1.43.22-.09.45-.22.72-.31.18-.09.36-.13.54-.27.05-.05.13-.05.22-.09.49-.13,1.03-.22,1.52-.31.63-.13,1.21-.13,1.83-.18.18,0,.36.04.49.04.31.04.63.13.94.13.13,0,.27.05.36.05.13.04.27.09.45.09.89.14,1.65.54,2.37,1.16,0,.04.04.09.09.13l.45.4c.18.09.27.22.36.4.04.13.09.27.18.36.05.13.09.22.09.36.04.22.18.4.18.67.04.22.04.45.13.67.04.13.04.27.04.4,0,.58.04,1.16.04,1.74,0,.31-.04,1.48.09,1.74.05.13.05.31.05.45v.58c0,.45-.05.4.18.94t.05.09c.09.18,0,.4-.09.58l-.05.04c-.18,0-.31-.04-.45,0-.14,0-.27.05-.45.05h-.49c-.13-.05-.27-.09-.45-.09-.36,0-.72.04-.8.04-.36,0-.72,0-1.03-.04-.09,0-.22-.09-.22-.18-.04-.13,0-.27.05-.4.09-.18.18-.36.22-.58.18-.72.22-1.57.13-3.22v-.67c.04-.45,0-.89-.13-1.3-.18-.4-.4-.72-.8-.94-.36-.22-.72-.36-1.12-.45-.27,0-.49-.04-.76-.09-.22.05-.45.09-.67.09-.31,0-.63.13-.89.22-.31.13-.58.31-.8.54-.14.13-.22.27-.36.36-.31.27-.49.63-.58,1.03-.09.27-.13.54-.18.76,0,.13,0,.27-.05.36-.13.36-.13.76-.13,1.12v1.12c0,1.34-.04,2.68,0,3.98,0,1.03-.04,2.01-.09,3.04,0,.72,0,1.43.04,2.15v2.55c0,.49-.04,1.03,0,1.52.04.18.04.36,0,.54-.04.27,0,.58,0,.85l.13,2.77c.04.72.09,1.43.09,2.19l.13,2.06v.27c.13.49.27.98.58,1.43.09.13.22.27.36.36.27.18.54.36.8.49.36.18.72.22,1.12.22.58-.04,1.21-.04,1.88-.36l.58-.36c.18-.09.27-.22.36-.31.4-.45.45-.49.54-1.07.09-.45.09-2.19.09-2.64v-.36c0-.63-.09-1.25-.18-1.88-.05-.31-.22-.63-.31-.94-.05-.18,0-.31.22-.54.18-.09.36-.05.54-.14.36,0,.67-.04.63-.04h.72c.27.04.58.04.85.04.31,0,.63-.04.94.09l.22.13c.09.09.13.22.09.31-.09.22-.14.49-.18.76l-.13.49c-.05.13-.09.27-.09.4,0,.58-.22,1.07-.22,1.65.04.67,0,2.68-.04,3.31,0,.4,0,.76-.09,1.12-.04.13-.09.22-.09.36-.04.36-.18.72-.36,1.07-.22.49-.54.89-.98,1.16-.22.09-.4.22-.58.36-.45.31-.94.49-1.48.54-.63.05-1.25.22-1.88.27-.31.09-.63.09-.94.09h-1.03c-.36-.13-.76-.13-1.12-.13Z"/>
    <path class="cls-2" d="m86.79,59.04s-.05.09-.09.13c-.36.13-.72.22-1.12.22-.36-.05-.76,0-1.12,0-.49-.05-.8.04-1.07.13-.27-.04-.49-.13-.76-.18-.09-.09-.13-.18-.09-.31.13-.54.22-1.07.27-1.61.04-.27.04-.49-.09-.67-.04-.05-.04-.13,0-.18.13-.22.09-.54.18-.76.04-.09.04-.18.04-.27,0-.31.09-.67.13-1.03v-.22c.05-.27-.04-.49,0-.72.05-.18,0-.4,0-.58-.04-.13.05-2.95.05-3.26v-.04c-1.39.31-4.61,1.52-5.28,1.79-.18.09-.36.13-.54.22l-.89.27v1.3c0,.31,0,.67.05,1.03.04.22.04.45.04.67.04.8.13,1.57.22,2.32,0,.14.04.22.09.36.13.63.27,1.21.4,1.56,0,.13-.13.31-.27.27-.18-.05-.36-.05-.54.04h-.22c-.31.04-.8,0-1.12.04-.04,0-.13.05-.22,0-.27-.04-.54-.04-.8,0-.4.05-.8,0-1.21,0,0,0-.05-.04-.05-.09-.09-.05-.13-.14-.09-.22,0-.14.04-.27.09-.4.05-.22.09-.45.09-.67-.04-.22,0-.49.09-.67.04-.09.04-.18.04-.27.05-.18.05-.4.05-.63.04-.14,0-.27.04-.4.09-1.03.09-2.1.13-3.13,0-.27.09-.58.05-.85,0-.04,0-.13.04-.18.09-.22.09-.49.09-.76-.04-.67.04-1.39.04-2.06v-.27c.09-.36.09-.76.09-1.12,0-1.34,0-2.68-.04-3.98-.05-.45-.09-.85-.09-1.3,0-.13-.04-.31,0-.45.09-.31.04-.67.04-1.03-.04-.31-.04-.94,0-1.25.05-.27.05-.58,0-.85v-.72c.09-.58.09-1.21.05-1.79-.05-.13,0-.22,0-.36.04-.54.09-1.03,0-1.57v-.27c0-.54.04-1.07.04-1.61,0-.27,0-.54-.04-.8-.05-.18-.05-.31,0-.49.04-.45.04-.94,0-1.39v-.18c.04-.58-.09-1.12-.09-1.7.04-.13.09-.27.04-.4-.13-.4-.04-.85.05-1.25.04-.09.04-.18.09-.27.22-.36.4-.76.67-1.12.36-.45.76-.85,1.25-1.21.09-.05.18-.09.22-.14l.31-.13c.22-.13.45-.27.72-.36.36-.13.76-.27,1.16-.36.09-.04.22-.04.31-.04l.85-.13c.63-.09.8-.05,1.43,0,.31.04.63.13.94.13.09,0,.18.04.22.09.27.09.54.14.76.09.09,0,.13.05.18.05.54.18.98.49,1.48.76.27.18.45.4.67.63.13.22.31.4.45.63.18.22.36.49.45.72.04.22.13.45.22.67l.18.27c.04.22,0,.36.04.49.04.36-.04.54,0,.85.04.31.04.63.09.94.09.8.09,1.61.09,2.41v3.71c0,.54.05,1.03.05,1.57,0,.31,0,.63-.05.94-.04.4-.04.8,0,1.21.05.67,0,1.65,0,2.32v2.77c0,.85-.04,1.74,0,2.59.05.36,0,.76,0,1.12-.04.27-.04.54,0,.76,0,.36,0,.72-.04,1.07-.04.13,0,.27,0,.4,0,.09.04.18,0,.27-.13.49-.09.98,0,1.48,0,.09.04.22,0,.31-.04.27-.04.54,0,.8v.13c-.04.94,0,1.88,0,2.77.04.4.04.76.13,1.12.05.18.05.36.09.54.04.49.13.94.27,1.43,0,.09,0,.18.05.27Zm-4.02-12.65c.13-.04.22-.13.36-.18-.05-.09-.05-.22-.05-.31,0-.22,0-.4.05-.63l.04-3.4v-2.68c-.04-.85-.04-1.21-.04-1.56.04-.49,0-.98,0-1.48,0-.4-.05-.8,0-1.21.04-.27.04-.58-.05-.85-.04-.09,0-.22,0-.36.05-.45.05-.94-.04-1.43-.04-.36-.04-.72,0-1.07v-1.3c-.04-.31,0-.63-.09-.94-.09-.54-.13-1.07-.31-1.56-.13-.22-.27-.4-.45-.58-.31-.22-.76-.67-1.12-.89-.4-.09-.67-.18-.98-.22-.13-.05-.27-.05-.4-.05-.27-.04-.18,0-.58,0-.09,0-.18,0-.27.05-.27.09-.63.18-.94.31-.49.27-.85.58-1.07,1.07-.18.45-.45.85-.31,1.34v1.88c-.09.27-.04.54,0,.8.04.49.09.98.04,1.48v5.32c0,.49-.04,1.07-.04,1.57,0,.54.04,1.12,0,1.7l-.04.8c-.05.36,0,.8,0,1.16.04,1.03.04,1.97-.05,2.95v2.73l1.39-.49c.36-.18.72-.31,1.07-.45.36-.13.27-.04.67-.31.45-.18.94-.36,1.48-.54l1.74-.67Z"/>
    <path class="cls-2" d="m103.29,25.06c-.05.31-.09.63-.09.94v1.03c0,.09-.04.18-.09.27-.04.14-.18.27-.27.27-.13,0-.22.04-.31.04-.22-.04-.45-.09-.67-.18l-.4-.14c-.54-.13-1.12-.27-1.74-.31-.09,0-.18,0-.31-.05-.4-.09-.8-.13-1.25-.13-.27,0-.58-.09-.8-.09-.18-.04-.31-.04-.54-.09-.76-.05-1.57,0-2.41.04h-.18s-.09.09-.09.13c-.05.04-.05.13-.05.18,0,.63.05,1.25,0,1.88v1.92c0,.76-.04,1.52-.04,2.23,0,.22,0,.49-.04.72-.05.54,0,1.07,0,1.65,0,.13.04.31.04.49-.04.94.04,1.83.04,2.77v.45c0,.09,0,.18.05.27,0,.98.04,1.65.09,2.5.67-.18,1.25-.4,1.39-.45.36-.18.72-.31,1.07-.45s.27-.05.67-.31c.45-.18.94-.36,1.48-.54.13-.04.22-.13.36-.18,1.48-.76,2.28-1.48,2.41-.89,0,1.43.04,3.22.04,4.47.05.58-.98,0-2.19.13-1.12.14-3.13.63-3.8.89-.18.09-.36.13-.54.22l-.85.27v.18c.04.31,0,.63.09.94-.05.31-.05.67-.05,1.03,0,.45-.04.85.09,1.3v3.62c0,.72.04,1.61.04,2.41-.09.4.22,1.92.36,2.64l.27,1.65c.04.09.04.18.04.27,0,.18-.22.4-.45.4-.36,0-.67.04-1.07.04-.36-.04-.72-.04-1.03-.04-.54,0-1.07.04-1.57.04h-.58s-.09,0-.13-.04c-.04,0-.13-.14-.09-.18v-.27c.09-.49.09-.94.18-1.39.04-.18.13-.36.13-.54.04-.27.04-.58.09-.89.04-.27.09-.54.09-.85.13-.85.09-1.39.18-2.33.05-.13.05-.27.05-.4.04-.58.04-.94.09-1.79v-1.39c0-.36.05-.67,0-1.03-.04-.72-.04-1.48-.04-2.23-.04-1.43-.04-2.82-.04-4.25v-4.74c-.05-.4,0-.8,0-1.25-.05-.36-.05-.72-.05-1.12-.04-.4-.04-.8-.04-1.21.04-.22.04-.45.04-.67-.04-.22-.04-.49-.04-.72,0-.36-.05-.76,0-1.12.09-.27.04-.58.04-.85-.04-.45-.04-.94-.13-1.39.04-.49-.04-.98-.13-1.43,0-.45-.09-.8-.18-1.21-.09-.4-.18-.8-.22-1.21-.09-.49-.18-.85-.31-1.25v-.18s.09-.18.13-.18c.09,0,.18-.05.27-.05h2.59c1.61,0,3.13.05,4.56.05h.58c.27.04.45,0,.72,0h.76l.63.04c.27-.04.54-.04.76-.04.4-.05.98-.09,1.43,0,.13.04.27.09.36,0h.22c.13-.05.36.09.4.18.13.49.09.8,0,1.43Z"/>
    <path class="cls-2" d="m119.07,57.92c.04.54,0,.98-.13,1.48-.05.09-.27.22-.4.18-.09-.04-.13-.04-.18-.09-.09-.09-.18-.14-.31-.09-.45.09-.85.09-1.25.04-.27,0-.54,0-.76-.04-.27,0-.45.04-.67.04h-.76c-.27,0-.45-.04-.72,0h-.67c-1.57.05-3.22.05-4.92.05h-2.68c-.09,0-.18-.05-.27-.05-.05,0-.13-.13-.13-.18v-.18c.13-.4.22-.76.31-1.16.05-.4.14-.8.22-1.21.09-.4.18-.76.18-1.21.13-.45.22-.94.18-1.43.09-.45.09-.94.14-1.39,0-.27.04-.58-.05-.85-.04-.36,0-.76,0-1.12,0-.22,0-.49.05-.72,0-.22,0-.45-.05-.67,0-.4,0-.8.05-1.21,0-.4,0-.76.04-1.12,0-.45-.04-.85,0-1.25v-4.74c0-1.43,0-2.82.04-4.25,0-.76,0-1.52.05-2.23.04-.58.04-1.16.09-1.74,0-1.61,0-3.31-.05-4.92,0-.54-.09-1.07-.18-1.61-.05-.27-.09-.54-.09-.76-.05-.49-.18-.94-.27-1.39l-.13-.58c0-.14.18-.27.31-.27.09,0,.18,0,.27.05.89.13,1.83.18,2.73.13.18,0,.31-.05.45-.05s.22.05.36.05c.18,0,.4.04.58,0h1.21c.58.04,1.16.04,1.74,0,.13,0,.22,0,.4.04.27,0,.49,0,.8-.04h.18c.67.04,1.34-.05,2.01,0,.13,0,.27,0,.4-.05.45-.04.94-.04,1.34-.09.09,0,.13,0,.18.04.09,0,.22.09.22.22.04.13.09.31.04.49-.04.45,0,.94.04,1.39v.36c.09.45.09.89.09,1.39,0,.27-.18.45-.4.58h-.09s-.13,0-.18-.05c-.36-.27-.8-.45-1.25-.54-.13,0-.27-.05-.4-.09-.36-.13-.67-.18-1.03-.18-.27,0-.58-.04-.89-.09-.13-.04-.31-.04-.49-.04h-.8c-.4.04-.8,0-1.21.04-.36.05-.98,0-1.39,0-.36,0-.72.05-1.07.09-.09,0-.18.13-.18.27-.04.31-.04.63-.04.94v6.35c-.13.45-.09.85-.09,1.3,0-.09,0,.27.04.58-.09.31-.04.63-.09.94v2.01c0,.14,0,.8-.05,1.7l1.43-.49c.36-.18.72-.31,1.07-.45s.27-.04.67-.31c.45-.18.94-.36,1.48-.54.13-.05.22-.14.36-.18,1.48-.76,2.28-1.48,2.41-.89,0,1.43.04,3.22.04,4.47.05.58-.98,0-2.19.14-1.12.13-3.13.63-3.8.89-.18.09-.36.14-.54.22-.36.09-.67.18-1.03.31v2.91c0,.18-.04.36-.04.49,0,.58-.04,1.12,0,1.65.04.22.04.49.04.72,0,.72,0,1.88-.04,2.24v1.92c.04.63,0,1.25,0,1.88,0,.05,0,.13.04.18,0,.04.05.09.09.13h.18c.89.04,1.79.09,2.86.04l.58-.09c.31,0,.58-.09.89-.09.45,0,.89-.05,1.25-.13.13-.05.27-.05.31-.05.67-.04,1.25-.18,1.79-.31l.45-.13c.22-.09.45-.13.63-.18.13,0,.22.04.36.04.09,0,.18.13.22.27,0,.09.05.18.05.27,0,.36,0,.67-.05,1.03,0,.31,0,.63.05.94Z"/>
  </g>
  <path class="cls-2" d="m116.59,15.12c-1.16.71-2.16,1.61-2.9,2.56-.65,1.27-1,1.88-2.05,3.06,0,0-.2,0-.2,0-.52-.69-.62-1.59-.39-2.38.87-2.05,3.42-3.13,5.48-3.43,0,0,.06.19.06.19h0Z"/>
</svg>